<?xml version="1.0" standalone="no"?>
<!DOCTYPE svg PUBLIC "-//W3C//DTD SVG 20010904//EN"
 "http://www.w3.org/TR/2001/REC-SVG-20010904/DTD/svg10.dtd">
<svg version="1.0" xmlns="http://www.w3.org/2000/svg"
 width="421.000000pt" height="421.000000pt" viewBox="0 0 421.000000 421.000000"
 preserveAspectRatio="xMidYMid meet">
<metadata>
Created by potrace 1.14, written by Peter Selinger 2001-2017
</metadata>
<g transform="translate(0.000000,421.000000) scale(0.100000,-0.100000)"
fill="#000000" stroke="none">
<path d="M2359 3917 c-43 -23 -131 -75 -197 -116 -38 -24 -62 -26 -108 -9 -61
22 -281 -39 -453 -126 -69 -35 -128 -97 -141 -148 -7 -24 -18 -54 -26 -68 -62
-105 -71 -161 -42 -244 22 -63 22 -67 6 -98 -45 -85 -62 -200 -38 -262 7 -18
5 -37 -5 -67 -9 -25 -15 -78 -15 -133 0 -115 -8 -166 -27 -166 -24 0 -37 -45
-23 -79 10 -24 10 -41 0 -81 -7 -27 -16 -50 -21 -50 -5 0 -9 4 -9 8 0 12 -39
52 -50 52 -6 0 -10 -8 -10 -18 0 -21 53 -76 63 -65 4 3 7 -17 7 -45 0 -44 -3
-52 -19 -52 -15 0 -18 -9 -20 -61 -1 -33 1 -76 5 -96 5 -28 10 -34 26 -30 18
5 19 1 12 -76 -8 -95 -16 -112 -48 -96 -16 9 -18 9 -10 0 6 -7 20 -14 30 -15
17 -3 20 -15 25 -107 10 -166 51 -265 193 -465 107 -149 184 -236 241 -269
148 -87 391 -114 544 -60 137 48 405 202 493 283 48 44 167 191 240 296 4 7
20 4 43 -7 44 -21 75 -22 101 -1 18 15 18 15 -3 5 -34 -17 -68 -13 -89 10 -18
20 -18 22 11 102 36 102 74 191 80 185 3 -2 -2 -29 -9 -59 -10 -37 -11 -59 -4
-72 15 -29 48 -2 86 75 29 56 32 69 22 88 -9 17 -19 21 -40 18 l-29 -4 20 27
c21 30 24 45 10 53 -5 3 -23 -14 -39 -39 -38 -58 -48 -44 -31 43 10 57 18 72
56 109 24 24 48 43 53 43 6 0 10 9 10 20 0 45 35 150 83 250 19 39 22 62 22
170 l0 126 42 64 c66 103 86 155 87 236 1 61 -3 76 -26 111 -33 51 -68 63 -68
25 0 -15 -5 -34 -10 -42 -7 -10 -8 5 -4 50 6 64 5 67 -49 175 -54 111 -115
183 -166 200 -25 8 -28 25 -4 25 22 0 89 72 97 106 5 18 2 32 -8 42 -14 14
-21 13 -74 -12 -42 -20 -66 -26 -83 -21 -13 4 -60 42 -104 85 -100 96 -125
113 -205 140 -39 13 -88 41 -126 71 -114 91 -192 109 -275 66z m-444 -876 c44
-11 106 -26 137 -35 74 -21 212 -42 428 -65 145 -16 188 -25 252 -50 42 -17
81 -31 87 -31 7 0 43 -16 81 -35 134 -67 156 -130 164 -460 l6 -221 -44 -154
c-24 -85 -47 -175 -51 -200 -13 -81 -66 -233 -116 -331 -58 -112 -137 -210
-240 -295 -84 -69 -350 -246 -405 -269 -132 -55 -428 -1 -541 99 -71 62 -275
385 -336 531 -40 96 -50 171 -45 321 3 75 10 140 15 145 7 7 21 -3 41 -29 81
-101 300 -136 418 -67 57 34 131 119 165 188 15 32 36 65 46 72 14 11 16 16 6
26 -18 18 -16 74 3 90 39 32 197 5 239 -41 15 -16 15 -24 5 -55 -8 -23 -11
-76 -8 -139 3 -91 7 -109 37 -170 56 -113 168 -182 317 -193 122 -10 222 40
302 150 34 46 41 65 56 157 14 89 21 108 42 125 36 29 30 65 -16 87 -131 64
-247 111 -306 123 -88 19 -227 18 -279 0 -22 -8 -47 -15 -56 -15 -9 0 -23 -10
-31 -22 l-15 -23 -54 28 c-58 29 -147 50 -183 43 -11 -3 -33 -7 -48 -11 -24
-4 -31 0 -53 34 -14 21 -41 47 -60 57 -19 10 -35 22 -35 26 0 5 -25 17 -50 23
-3 1 -32 10 -65 21 -47 14 -90 19 -192 19 -129 0 -133 1 -133 21 0 34 79 273
112 339 92 182 203 233 403 186z m-242 -596 c90 -19 180 -68 217 -119 24 -32
30 -49 28 -85 l-1 -46 -4 45 c-5 54 -21 74 -88 108 -43 23 -63 26 -145 27 -84
0 -102 -3 -151 -27 -87 -43 -188 -179 -150 -202 5 -3 14 8 21 24 18 43 35 54
54 35 9 -9 16 -22 16 -30 0 -12 64 -75 76 -75 2 0 -11 16 -31 35 -46 46 -46
77 0 105 34 21 95 43 95 34 0 -3 -7 -18 -15 -34 -18 -35 -21 -95 -7 -131 8
-20 24 -31 59 -42 68 -22 113 -28 113 -17 0 6 5 10 11 10 5 0 7 -4 4 -10 -3
-5 0 -10 8 -10 21 0 54 36 68 75 14 38 32 42 37 7 7 -49 -85 -161 -163 -198
-57 -27 -152 -32 -220 -12 -22 6 -43 11 -47 10 -5 -1 -8 3 -8 9 0 5 -4 7 -10
4 -5 -3 -10 -1 -10 5 0 6 -8 10 -17 8 -10 -2 -18 3 -18 12 -1 8 -6 14 -12 13
-6 -1 -17 5 -25 14 -9 12 -9 15 0 9 16 -10 15 0 -4 29 -29 44 -35 95 -20 175
8 41 18 97 21 124 5 39 15 56 51 92 l43 44 78 0 c43 0 108 -7 146 -15z m218
-72 c13 -16 12 -17 -3 -4 -10 7 -18 15 -18 17 0 8 8 3 21 -13z m602 -60 c-7
-2 -19 -2 -25 0 -7 3 -2 5 12 5 14 0 19 -2 13 -5z m75 0 c-10 -2 -28 -2 -40 0
-13 2 -5 4 17 4 22 1 32 -1 23 -4z m69 -9 c-3 -3 -12 -4 -19 -1 -8 3 -5 6 6 6
11 1 17 -2 13 -5z m0 -30 c43 -9 105 -28 139 -44 50 -22 67 -36 82 -67 65
-127 15 -322 -101 -400 -66 -44 -118 -57 -192 -48 -33 4 -72 8 -87 9 -14 1
-24 4 -22 7 2 3 -8 11 -22 18 -69 31 -136 109 -150 173 -18 88 -24 125 -23
152 1 29 2 29 10 -9 5 -22 11 -49 14 -60 4 -19 12 -20 137 -20 112 -1 150 -5
241 -28 117 -31 138 -28 135 19 -2 20 -11 26 -53 38 -75 21 -152 35 -225 40
-36 2 -82 12 -102 20 -21 9 -51 16 -68 16 -33 0 -36 6 -17 31 16 21 108 49
156 49 78 -1 198 -60 286 -139 27 -25 60 -54 73 -65 l22 -19 0 38 c0 34 -7 46
-54 91 -30 29 -71 62 -93 73 -29 15 -33 20 -17 21 12 0 40 -7 62 -14 53 -19
64 -4 26 36 -40 42 -76 54 -179 62 -164 12 -207 18 -193 27 21 14 133 10 215
-7z m-933 -27 c13 -21 -15 -53 -38 -44 -26 10 -31 38 -11 54 22 16 35 13 49
-10z m626 -27 c0 -5 -4 -10 -10 -10 -14 0 -12 -37 3 -43 6 -3 0 -6 -15 -6 -32
-1 -36 14 -12 47 16 23 34 29 34 12z m-415 -39 c3 -5 1 -12 -5 -16 -5 -3 -10
1 -10 9 0 18 6 21 15 7z m-628 -173 c-2 -13 -4 -3 -4 22 0 25 2 35 4 23 2 -13
2 -33 0 -45z m1320 -314 c-3 -3 -12 -4 -19 -1 -8 3 -5 6 6 6 11 1 17 -2 13 -5z"/>
<path d="M1612 2623 c-28 -5 -102 -76 -102 -98 0 -20 10 -19 40 5 41 32 88 25
202 -30 112 -53 158 -65 184 -46 31 23 8 55 -64 88 -143 64 -219 88 -260 81z"/>
<path d="M1870 1740 c0 -35 27 -88 55 -106 15 -9 48 -23 75 -30 84 -22 150 7
166 73 9 36 -2 39 -30 7 -23 -27 -29 -29 -98 -29 -66 0 -79 3 -111 28 -20 15
-37 37 -37 47 0 10 -4 22 -10 25 -5 3 -10 -3 -10 -15z"/>
<path d="M1707 1523 c-3 -5 1 -23 10 -40 38 -79 148 -173 206 -177 17 -1 32
-7 34 -12 2 -5 22 -8 44 -6 22 3 46 -1 52 -7 30 -30 200 9 305 69 29 17 65 48
80 70 18 26 35 39 50 40 28 0 29 26 1 40 -25 14 -53 5 -45 -15 7 -19 -29 -24
-189 -25 -71 -1 -159 -1 -195 -2 -46 0 -92 8 -160 30 -106 34 -185 48 -193 35z
m233 -74 c95 -20 120 -29 84 -29 -29 0 -184 39 -203 51 -14 8 -13 9 4 5 11 -3
63 -15 115 -27z m143 -36 c-7 -2 -19 -2 -25 0 -7 3 -2 5 12 5 14 0 19 -2 13
-5z"/>
<path d="M2230 1228 c-25 -11 -76 -28 -115 -38 -64 -18 -66 -19 -20 -13 56 6
141 35 171 58 25 19 18 18 -36 -7z"/>
<path d="M3240 1929 c-46 -28 -45 -26 -31 -43 10 -12 18 -12 54 2 52 19 67 30
67 48 0 21 -50 17 -90 -7z"/>
</g>
</svg>
