<?xml version="1.0" standalone="no"?>
<!DOCTYPE svg PUBLIC "-//W3C//DTD SVG 20010904//EN"
 "http://www.w3.org/TR/2001/REC-SVG-20010904/DTD/svg10.dtd">
<svg version="1.0" xmlns="http://www.w3.org/2000/svg"
 width="421.000000pt" height="421.000000pt" viewBox="0 0 421.000000 421.000000"
 preserveAspectRatio="xMidYMid meet">
<metadata>
Created by potrace 1.14, written by Peter Selinger 2001-2017
</metadata>
<g transform="translate(0.000000,421.000000) scale(0.100000,-0.100000)"
fill="#000000" stroke="none">
<path d="M1210 4043 c-23 -10 -41 -31 -46 -55 -9 -45 -14 -77 -20 -119 -3 -24
-8 -55 -10 -69 -3 -22 -7 -70 -19 -200 -2 -19 -6 -73 -10 -120 -13 -150 -17
-101 -9 105 10 275 10 287 -5 322 -13 32 -34 43 -87 43 -60 0 -67 -21 -80
-225 -3 -60 -8 -121 -9 -135 -2 -14 -4 -76 -6 -137 -1 -62 -6 -113 -10 -113
-4 0 -9 72 -11 160 -3 147 -5 161 -24 181 -12 11 -38 22 -59 24 -46 5 -86 -29
-84 -72 0 -16 0 -95 0 -178 -1 -212 5 -338 25 -480 10 -72 44 -154 89 -220 41
-58 50 -95 24 -95 -5 0 -9 -8 -9 -18 0 -10 -5 -23 -12 -30 -7 -7 -9 -12 -5
-12 3 0 2 -12 -4 -27 -11 -28 -15 -44 -25 -92 -3 -14 -22 -44 -44 -67 -36 -39
-86 -130 -95 -171 -2 -10 -9 -31 -15 -48 -6 -16 -13 -37 -15 -45 -2 -8 -10
-36 -19 -62 -9 -26 -21 -66 -26 -90 -5 -24 -16 -74 -25 -113 -9 -38 -18 -85
-21 -104 -3 -18 -7 -43 -10 -54 -2 -12 -6 -37 -9 -57 -3 -20 -8 -47 -10 -60
-3 -14 -8 -41 -11 -60 -10 -68 -13 -85 -21 -125 -15 -78 -9 -236 11 -294 17
-49 110 -200 153 -246 42 -47 122 -150 211 -273 29 -40 61 -83 71 -95 108
-127 192 -230 201 -247 11 -20 17 -20 1171 -20 l1161 0 -34 59 c-41 75 -144
205 -223 285 -67 67 -122 116 -130 116 -3 0 -15 8 -26 18 -36 34 -214 117
-305 143 -23 6 -53 21 -65 33 -13 12 -27 23 -32 24 -4 1 -14 5 -23 10 -13 7
-11 12 12 27 41 27 234 224 234 239 0 3 13 25 29 48 16 24 27 46 25 50 -3 5 0
8 7 8 7 0 9 3 6 7 -4 3 -3 11 1 17 5 6 16 34 26 61 10 28 20 57 23 65 4 8 6
18 5 22 -1 3 16 4 37 1 33 -5 41 -2 58 23 23 32 48 100 57 154 3 19 9 53 13
75 8 46 9 177 2 217 -9 44 4 113 21 114 32 2 39 5 54 20 9 8 16 27 16 41 0 15
6 34 14 42 8 9 17 34 20 55 11 70 17 84 34 81 29 -4 69 15 81 39 13 24 10 62
-8 108 -5 15 -13 49 -16 75 -3 26 -10 52 -15 57 -17 17 -11 25 24 40 49 21 68
60 51 109 -14 41 -28 61 -63 94 -20 18 -22 26 -13 37 6 8 13 22 15 32 2 11 5
24 7 29 8 28 -35 95 -61 95 -5 0 -10 4 -10 9 0 8 -29 17 -85 27 -11 2 -39 9
-63 15 l-43 12 36 37 c21 22 38 50 41 71 5 29 1 40 -28 72 -19 20 -38 34 -41
30 -4 -3 -7 -1 -7 5 0 7 -6 12 -12 12 -7 0 -25 6 -40 14 -14 8 -44 17 -65 20
-21 3 -49 8 -63 11 -14 3 -46 6 -72 6 -36 1 -49 5 -53 18 -3 10 -19 27 -35 40
-22 16 -28 26 -22 37 22 39 -28 107 -89 120 -113 25 -193 19 -275 -21 -60 -29
-64 -30 -64 -10 0 20 -36 42 -88 53 -55 13 -154 -7 -223 -45 -52 -28 -159
-135 -159 -159 0 -8 -4 -14 -9 -14 -5 0 -11 -10 -14 -22 -6 -21 -7 -21 -26 -4
-10 9 -18 25 -16 34 3 24 -22 69 -46 82 -36 20 -61 20 -106 0 -47 -20 -133
-97 -133 -117 0 -7 -4 -13 -9 -13 -5 0 -15 -16 -22 -35 -24 -65 -32 -30 -14
60 3 17 8 46 10 65 11 76 16 107 21 130 8 39 12 62 18 103 3 20 8 52 11 70 17
109 10 147 -31 166 -64 29 -117 -6 -129 -85 -3 -25 -8 -56 -11 -67 -2 -12 -6
-33 -9 -47 -3 -14 -7 -35 -9 -46 -2 -12 -7 -39 -10 -60 -11 -75 -18 -119 -22
-136 -2 -10 -6 -28 -9 -39 -20 -92 -13 84 10 261 2 19 7 62 10 94 3 33 8 63
11 67 10 18 5 147 -7 167 -20 32 -73 49 -109 35z m73 -1959 c-3 -19 -6 -49 -6
-66 -1 -17 -8 -33 -16 -36 -10 -3 -12 0 -7 14 4 11 10 43 13 72 3 28 9 52 13
52 4 0 6 -16 3 -36z m-33 -399 c36 -163 65 -213 120 -202 35 7 38 3 79 -96 51
-124 106 -210 187 -294 38 -39 42 -47 17 -39 -10 3 -29 7 -43 10 -62 12 -77
17 -127 42 -29 14 -53 30 -53 35 0 5 -6 9 -14 9 -8 0 -16 4 -18 8 -1 4 -24 23
-50 42 -27 18 -48 36 -48 39 0 3 -13 20 -28 36 -50 55 -91 117 -87 134 2 10 6
51 10 92 7 88 14 149 22 204 3 22 5 51 4 64 -2 45 8 16 29 -84z"/>
</g>
</svg>
